<?xml version="1.0" standalone="no"?>
<!DOCTYPE svg PUBLIC "-//W3C//DTD SVG 20010904//EN"
 "http://www.w3.org/TR/2001/REC-SVG-20010904/DTD/svg10.dtd">
<svg version="1.0" xmlns="http://www.w3.org/2000/svg"
 width="832.000000pt" height="832.000000pt" viewBox="0 0 832.000000 832.000000"
 preserveAspectRatio="xMidYMid meet">
<metadata>
Created by potrace 1.11, written by Peter Selinger 2001-2013
</metadata>
<g transform="translate(0.000000,832.000000) scale(0.100000,-0.100000)"
fill="#000000" stroke="none">
<path d="M3908 8305 c-1 -2 -37 -6 -78 -9 -111 -10 -207 -22 -240 -31 -8 -2
-31 -7 -50 -10 -99 -16 -394 -99 -417 -118 -7 -5 -13 -6 -13 -1 0 4 -5 3 -12
-4 -7 -7 -18 -12 -25 -12 -14 0 -216 -98 -287 -139 -49 -28 -148 -95 -201
-135 -66 -50 -227 -216 -278 -286 -26 -36 -51 -69 -55 -75 -4 -5 -26 -41 -48
-80 -66 -115 -133 -297 -151 -410 -3 -16 -9 -50 -14 -75 -9 -48 -5 -345 5
-395 4 -16 12 -55 18 -85 6 -30 13 -59 15 -65 1 -5 9 -32 17 -60 8 -27 22 -68
32 -90 10 -22 19 -44 20 -50 1 -5 20 -43 43 -84 23 -41 41 -77 41 -82 0 -4 3
-9 8 -11 4 -1 23 -25 41 -53 19 -27 40 -53 45 -57 6 -4 8 -8 5 -8 -14 0 116
-136 201 -210 60 -53 252 -177 361 -233 122 -62 359 -153 449 -171 14 -3 50
-12 81 -20 30 -8 84 -20 120 -26 91 -16 104 -18 104 -20 0 -1 16 -3 35 -5 19
-2 54 -6 77 -9 192 -26 511 -26 748 -1 50 6 90 12 90 15 0 1 16 3 35 4 37 4
77 11 150 27 25 6 52 12 60 14 8 2 42 10 75 19 33 9 70 19 82 22 12 2 33 8 47
14 13 5 27 6 30 3 3 -4 6 -1 6 5 0 7 6 12 14 12 24 0 186 66 276 112 72 37
148 81 244 141 105 65 278 228 375 353 15 19 116 177 117 183 0 3 15 35 31 71
17 36 36 85 43 110 7 25 17 51 22 58 6 6 8 12 5 12 -3 0 0 21 8 48 25 87 38
196 38 322 1 148 -11 246 -45 364 -6 23 -13 47 -14 55 -6 33 -68 181 -76 181
-4 0 -8 8 -8 18 0 9 -9 28 -20 42 -11 14 -20 28 -20 33 0 8 -51 83 -107 157
-46 60 -149 167 -220 226 -32 27 -59 52 -61 57 -2 4 -10 7 -18 7 -8 0 -14 5
-14 10 0 6 -6 10 -14 10 -8 0 -16 4 -18 8 -5 14 -195 125 -288 169 -82 39
-213 89 -295 113 -22 6 -47 14 -55 17 -8 3 -26 8 -40 10 -13 2 -30 8 -36 14
-6 5 -13 7 -16 4 -2 -3 -20 0 -39 5 -19 6 -45 12 -59 15 -14 3 -36 7 -50 10
-52 11 -227 37 -285 42 -68 6 -541 13 -547 8z m362 -415 c68 -4 315 -35 315
-40 0 -1 9 -3 20 -5 20 -3 114 -26 160 -39 48 -14 164 -62 222 -93 235 -121
401 -285 508 -498 25 -49 45 -96 45 -103 0 -7 7 -26 15 -42 9 -16 17 -42 19
-57 3 -16 7 -39 10 -53 36 -154 23 -397 -30 -559 -21 -62 -77 -185 -86 -189
-5 -2 -8 -9 -8 -17 0 -7 -7 -18 -15 -25 -8 -7 -12 -16 -9 -21 3 -5 1 -9 -5 -9
-6 0 -17 -12 -25 -27 -14 -28 -27 -44 -102 -124 -62 -66 -92 -91 -174 -146
-135 -91 -319 -169 -478 -204 -31 -7 -59 -13 -62 -14 -3 -1 -27 -5 -55 -9 -27
-4 -61 -10 -75 -12 -100 -19 -389 -25 -539 -11 -46 4 -86 9 -90 11 -3 2 -29 6
-58 10 -28 3 -57 8 -65 11 -7 2 -25 7 -40 10 -57 11 -75 15 -148 39 -200 63
-377 170 -510 306 -104 107 -103 105 -161 202 -65 108 -116 248 -136 373 -8
48 -8 293 -1 350 8 56 36 164 54 202 7 17 14 35 14 40 0 13 70 145 86 164 8 8
14 21 14 27 0 7 4 12 8 12 4 0 16 15 27 33 45 77 300 297 344 297 6 0 11 4 11
9 0 16 251 120 330 136 8 2 38 9 65 15 28 7 59 13 70 15 11 1 36 5 55 8 50 10
113 17 205 23 44 3 80 6 81 7 3 2 128 0 194 -3z"/>
<path d="M7103 4540 c-24 -17 -43 -28 -43 -24 0 3 -6 2 -12 -3 -12 -10 -137
-54 -148 -52 -3 0 -18 -4 -33 -10 -26 -10 -67 -20 -112 -26 -11 -2 -20 -4 -20
-5 0 -3 -41 -11 -80 -15 -22 -2 -40 -5 -40 -5 0 -7 -111 -19 -245 -25 -63 -3
-151 -8 -195 -11 -44 -3 -129 -7 -190 -10 -60 -3 -150 -7 -200 -9 -49 -3 -149
-7 -221 -9 -272 -10 -386 -16 -395 -22 -5 -3 -9 0 -9 6 0 6 -4 8 -10 5 -11 -7
-129 -12 -475 -20 -843 -20 -3357 -20 -3670 0 -193 13 -380 28 -490 39 -129
14 -161 19 -167 22 -3 2 -44 7 -90 10 -82 6 -84 6 -133 -27 -92 -62 -84 -140
26 -250 31 -31 76 -69 100 -84 24 -16 46 -31 49 -34 17 -21 384 -205 519 -260
172 -71 244 -90 261 -70 5 6 193 78 215 83 6 1 47 14 92 29 46 15 93 28 105
31 13 2 41 9 63 14 22 6 58 13 80 17 23 3 50 7 62 9 12 3 54 8 95 11 40 4 87
9 103 10 57 6 210 17 280 20 355 17 552 24 805 30 678 18 1485 33 1775 34 55
0 109 0 120 0 50 1 199 0 204 -1 3 0 11 0 16 1 6 1 64 1 130 1 66 -1 127 -1
135 -1 71 2 195 -1 201 -5 4 -2 10 -1 12 3 3 5 58 6 122 3 64 -3 118 -3 120 0
2 3 38 3 80 0 42 -3 78 -3 80 0 2 3 38 3 80 0 42 -3 78 -3 80 0 2 3 38 3 80 0
42 -3 78 -3 80 -1 3 2 42 3 87 2 82 -2 96 -2 121 0 14 1 511 -10 677 -16 122
-4 248 -11 395 -21 123 -9 333 -10 370 -2 115 24 145 33 184 51 50 24 103 74
125 122 20 41 22 214 4 247 -34 60 -166 137 -280 164 -5 1 -9 2 -10 4 -2 1
-12 3 -23 5 -22 3 -77 13 -115 20 -51 11 -67 13 -155 24 -151 20 -174 21 -355
27 l-175 5 -42 -31z"/>
<path d="M6178 3035 c-2 -2 -61 -6 -133 -10 -71 -3 -157 -8 -190 -10 -33 -2
-116 -6 -185 -10 -69 -3 -154 -8 -190 -10 -86 -5 -266 -15 -360 -20 -68 -4
-161 -8 -460 -20 -109 -5 -278 -12 -460 -21 -314 -14 -468 -17 -900 -17 -261
0 -511 3 -555 7 -44 4 -102 9 -130 11 -105 9 -207 18 -325 29 -30 3 -89 8
-130 11 -41 3 -115 9 -165 12 -117 9 -398 9 -453 0 -66 -10 -120 -44 -128 -81
-11 -46 -9 -72 10 -115 21 -45 97 -95 195 -127 144 -48 292 -121 357 -176 84
-71 111 -114 118 -188 3 -36 8 -81 10 -100 3 -19 7 -62 11 -95 3 -33 8 -73 11
-90 2 -16 6 -55 9 -85 2 -30 7 -71 10 -90 3 -19 7 -64 10 -100 2 -36 5 -65 6
-65 2 0 6 -29 13 -95 6 -57 14 -133 21 -185 20 -169 31 -267 39 -345 2 -19 7
-64 10 -100 4 -36 9 -75 11 -88 2 -13 7 -53 11 -90 3 -37 8 -76 9 -87 1 -11 8
-67 14 -125 6 -58 14 -119 16 -136 2 -17 7 -57 11 -90 11 -111 63 -232 121
-285 40 -36 73 -48 129 -45 69 4 139 38 196 96 44 45 98 136 98 168 0 6 6 12
13 13 158 7 381 17 602 25 77 3 190 7 250 9 127 6 206 7 220 5 6 -2 15 -1 20
0 14 4 127 8 394 14 128 3 236 7 239 10 2 3 12 1 22 -4 10 -5 20 -7 23 -3 7 6
335 12 1037 18 278 2 512 5 520 7 146 37 216 112 214 231 -1 37 -8 76 -18 95
-19 36 -65 82 -83 82 -7 0 -13 4 -13 8 0 16 -115 39 -207 41 -17 1 -21 6 -18
23 3 13 12 57 20 98 8 41 17 91 20 110 2 19 9 60 16 90 6 30 12 66 14 80 2 14
4 25 5 25 1 0 3 9 4 20 4 26 14 83 21 115 3 14 8 40 11 59 3 18 8 43 10 55 2
11 7 35 9 51 13 73 25 142 30 165 3 14 8 39 10 55 3 17 14 77 25 135 10 58 21
121 24 140 3 19 7 44 10 55 2 11 6 38 10 60 3 22 9 58 13 80 4 22 7 50 7 63 1
12 5 22 9 22 5 0 6 3 4 8 -3 4 -1 32 4 62 5 30 12 75 15 100 3 25 10 55 15 68
5 12 8 26 7 30 -1 4 1 21 5 37 4 17 9 45 12 64 3 19 7 37 9 40 7 10 17 84 21
147 3 55 1 64 -25 96 -33 40 -88 61 -172 64 -31 1 -58 0 -60 -1z m-558 -475
c4 -6 5 -47 4 -93 -1 -45 -5 -192 -9 -327 -4 -135 -8 -303 -10 -375 -2 -71 -6
-227 -10 -345 -3 -118 -8 -300 -10 -405 -2 -104 -5 -192 -6 -195 -1 -3 -1 -12
0 -21 1 -9 -4 -16 -11 -16 -7 -1 -35 -4 -63 -7 -84 -10 -165 -19 -310 -31
-111 -9 -202 -14 -565 -29 -47 -2 -148 -7 -225 -11 -77 -4 -180 -8 -230 -10
-207 -8 -382 -16 -407 -19 -16 -2 -28 1 -28 6 0 5 -6 6 -12 1 -7 -4 -207 -8
-444 -9 l-432 -1 -2 106 c-1 58 -3 156 -5 216 -2 61 -4 133 -4 160 -1 65 -1
63 -5 185 -5 102 -6 157 -22 680 -9 266 -9 441 0 475 5 20 12 22 88 23 107 1
308 10 653 28 50 2 229 6 398 8 170 2 311 6 313 9 3 3 19 1 35 -3 16 -5 29 -5
29 0 0 5 13 5 30 0 17 -5 30 -5 30 -2 0 7 66 8 80 2 3 -1 10 -1 15 0 6 1 167
4 359 6 192 2 351 5 352 7 8 8 419 -5 424 -13z"/>
</g>
</svg>
